<?xml version="1.0" encoding="UTF-8" standalone="no"?>
<!DOCTYPE svg PUBLIC "-//W3C//DTD SVG 1.1//EN"
 "http://www.w3.org/Graphics/SVG/1.1/DTD/svg11.dtd">
<!-- Generated by graphviz version 2.43.0 (0)
 -->
<!-- Title: CampusOS_ER Pages: 1 -->
<svg width="934pt" height="1333pt"
 viewBox="0.00 0.00 934.00 1333.00" xmlns="http://www.w3.org/2000/svg" xmlns:xlink="http://www.w3.org/1999/xlink">
<g id="graph0" class="graph" transform="scale(1 1) rotate(0) translate(18 1315)">
<title>CampusOS_ER</title>
<polygon fill="white" stroke="transparent" points="-18,18 -18,-1315 916,-1315 916,18 -18,18"/>
<text text-anchor="middle" x="449" y="-1277" font-family="Arial" font-size="20.00">CampusOS v1 — User Space &amp; Documents</text>
<g id="clust1" class="cluster">
<title>cluster_User_Space___Documents</title>
<path fill="white" stroke="#eee5ff" stroke-width="2" d="M343,-8C343,-8 878,-8 878,-8 884,-8 890,-14 890,-20 890,-20 890,-1247 890,-1247 890,-1253 884,-1259 878,-1259 878,-1259 343,-1259 343,-1259 337,-1259 331,-1253 331,-1247 331,-1247 331,-20 331,-20 331,-14 337,-8 343,-8"/>
<text text-anchor="middle" x="610.5" y="-1239" font-family="Arial" font-size="20.00">User Space &amp; Documents</text>
</g>
<g id="clust2" class="cluster">
<title>cluster_external</title>
<path fill="white" stroke="#dddddd" stroke-dasharray="5,2" d="M12,-541C12,-541 178,-541 178,-541 184,-541 190,-547 190,-553 190,-553 190,-599 190,-599 190,-605 184,-611 178,-611 178,-611 12,-611 12,-611 6,-611 0,-605 0,-599 0,-599 0,-553 0,-553 0,-547 6,-541 12,-541"/>
<text text-anchor="middle" x="95" y="-591" font-family="Arial" font-size="20.00">External references</text>
</g>
<!-- n_personal_document_previews -->
<g id="node1" class="node">
<title>n_personal_document_previews</title>
<g id="a_node1"><a xlink:title="personal_document_previews">
<polygon fill="#eee5ff" stroke="transparent" points="339,-1198 339,-1221 543,-1221 543,-1198 339,-1198"/>
<polygon fill="none" stroke="black" points="339,-1198 339,-1221 543,-1221 543,-1198 339,-1198"/>
<text text-anchor="start" x="343" y="-1206.8" font-family="Arial" font-weight="bold" font-size="14.00">personal_document_previews</text>
<polygon fill="none" stroke="black" points="339,-1180 339,-1198 377,-1198 377,-1180 339,-1180"/>
<text text-anchor="start" x="343" y="-1187.1" font-family="Arial" font-size="8.00">PK</text>
<polygon fill="none" stroke="black" points="377,-1180 377,-1198 475,-1198 475,-1180 377,-1180"/>
<text text-anchor="start" x="381" y="-1186.8" font-family="Arial" font-size="9.00">id</text>
<polygon fill="none" stroke="black" points="475,-1180 475,-1198 543,-1198 543,-1180 475,-1180"/>
<text text-anchor="start" x="479" y="-1187.1" font-family="Arial" font-size="8.00">BIGINT</text>
<polygon fill="none" stroke="black" points="339,-1162 339,-1180 377,-1180 377,-1162 339,-1162"/>
<text text-anchor="start" x="343" y="-1169.1" font-family="Arial" font-size="8.00">UQ NN</text>
<polygon fill="none" stroke="black" points="377,-1162 377,-1180 475,-1180 475,-1162 377,-1162"/>
<text text-anchor="start" x="381" y="-1168.8" font-family="Arial" font-size="9.00">document_version_id</text>
<polygon fill="none" stroke="black" points="475,-1162 475,-1180 543,-1180 543,-1162 475,-1162"/>
<text text-anchor="start" x="479" y="-1169.1" font-family="Arial" font-size="8.00">BIGINT</text>
<polygon fill="none" stroke="black" points="339,-1144 339,-1162 377,-1162 377,-1144 339,-1144"/>
<polygon fill="none" stroke="black" points="377,-1144 377,-1162 475,-1162 475,-1144 377,-1144"/>
<text text-anchor="start" x="381" y="-1150.8" font-family="Arial" font-size="9.00">preview_object_id</text>
<polygon fill="none" stroke="black" points="475,-1144 475,-1162 543,-1162 543,-1144 475,-1144"/>
<text text-anchor="start" x="479" y="-1151.1" font-family="Arial" font-size="8.00">BIGINT</text>
<polygon fill="none" stroke="black" points="339,-1126 339,-1144 377,-1144 377,-1126 339,-1126"/>
<text text-anchor="start" x="343" y="-1133.1" font-family="Arial" font-size="8.00">NN</text>
<polygon fill="none" stroke="black" points="377,-1126 377,-1144 475,-1144 475,-1126 377,-1126"/>
<text text-anchor="start" x="381" y="-1132.8" font-family="Arial" font-size="9.00">status</text>
<polygon fill="none" stroke="black" points="475,-1126 475,-1144 543,-1144 543,-1126 475,-1126"/>
<text text-anchor="start" x="479" y="-1133.1" font-family="Arial" font-size="8.00">VARCHAR(20)</text>
<polygon fill="none" stroke="black" points="339,-1108 339,-1126 377,-1126 377,-1108 339,-1108"/>
<text text-anchor="start" x="343" y="-1115.1" font-family="Arial" font-size="8.00">NN</text>
<polygon fill="none" stroke="black" points="377,-1108 377,-1126 475,-1126 475,-1108 377,-1108"/>
<text text-anchor="start" x="381" y="-1114.8" font-family="Arial" font-size="9.00">error_code</text>
<polygon fill="none" stroke="black" points="475,-1108 475,-1126 543,-1126 543,-1108 475,-1108"/>
<text text-anchor="start" x="479" y="-1115.1" font-family="Arial" font-size="8.00">VARCHAR(80)</text>
<polygon fill="none" stroke="black" points="339,-1090 339,-1108 377,-1108 377,-1090 339,-1090"/>
<text text-anchor="start" x="343" y="-1097.1" font-family="Arial" font-size="8.00">NN</text>
<polygon fill="none" stroke="black" points="377,-1090 377,-1108 475,-1108 475,-1090 377,-1090"/>
<text text-anchor="start" x="381" y="-1096.8" font-family="Arial" font-size="9.00">attempts</text>
<polygon fill="none" stroke="black" points="475,-1090 475,-1108 543,-1108 543,-1090 475,-1090"/>
<text text-anchor="start" x="479" y="-1097.1" font-family="Arial" font-size="8.00">INTEGER</text>
<polygon fill="none" stroke="black" points="339,-1072 339,-1090 377,-1090 377,-1072 339,-1072"/>
<text text-anchor="start" x="343" y="-1079.1" font-family="Arial" font-size="8.00">NN</text>
<polygon fill="none" stroke="black" points="377,-1072 377,-1090 475,-1090 475,-1072 377,-1072"/>
<text text-anchor="start" x="381" y="-1078.8" font-family="Arial" font-size="9.00">created_at</text>
<polygon fill="none" stroke="black" points="475,-1072 475,-1090 543,-1090 543,-1072 475,-1072"/>
<text text-anchor="start" x="479" y="-1079.1" font-family="Arial" font-size="8.00">TIMESTAMPTZ</text>
<polygon fill="none" stroke="black" points="339,-1054 339,-1072 377,-1072 377,-1054 339,-1054"/>
<text text-anchor="start" x="343" y="-1061.1" font-family="Arial" font-size="8.00">NN</text>
<polygon fill="none" stroke="black" points="377,-1054 377,-1072 475,-1072 475,-1054 377,-1054"/>
<text text-anchor="start" x="381" y="-1060.8" font-family="Arial" font-size="9.00">updated_at</text>
<polygon fill="none" stroke="black" points="475,-1054 475,-1072 543,-1072 543,-1054 475,-1054"/>
<text text-anchor="start" x="479" y="-1061.1" font-family="Arial" font-size="8.00">TIMESTAMPTZ</text>
</a>
</g>
</g>
<!-- n_personal_document_versions -->
<g id="node2" class="node">
<title>n_personal_document_versions</title>
<g id="a_node2"><a xlink:title="personal_document_versions">
<polygon fill="#eee5ff" stroke="transparent" points="341,-1006 341,-1029 542,-1029 542,-1006 341,-1006"/>
<polygon fill="none" stroke="black" points="341,-1006 341,-1029 542,-1029 542,-1006 341,-1006"/>
<text text-anchor="start" x="345" y="-1014.8" font-family="Arial" font-weight="bold" font-size="14.00">personal_document_versions</text>
<polygon fill="none" stroke="black" points="341,-988 341,-1006 362,-1006 362,-988 341,-988"/>
<text text-anchor="start" x="345" y="-995.1" font-family="Arial" font-size="8.00">PK</text>
<polygon fill="none" stroke="black" points="362,-988 362,-1006 476,-1006 476,-988 362,-988"/>
<text text-anchor="start" x="366" y="-994.8" font-family="Arial" font-size="9.00">id</text>
<polygon fill="none" stroke="black" points="476,-988 476,-1006 542,-1006 542,-988 476,-988"/>
<text text-anchor="start" x="480" y="-995.1" font-family="Arial" font-size="8.00">BIGINT</text>
<polygon fill="none" stroke="black" points="341,-970 341,-988 362,-988 362,-970 341,-970"/>
<text text-anchor="start" x="345" y="-977.1" font-family="Arial" font-size="8.00">NN</text>
<polygon fill="none" stroke="black" points="362,-970 362,-988 476,-988 476,-970 362,-970"/>
<text text-anchor="start" x="366" y="-976.8" font-family="Arial" font-size="9.00">document_id</text>
<polygon fill="none" stroke="black" points="476,-970 476,-988 542,-988 542,-970 476,-970"/>
<text text-anchor="start" x="480" y="-977.1" font-family="Arial" font-size="8.00">BIGINT</text>
<polygon fill="none" stroke="black" points="341,-952 341,-970 362,-970 362,-952 341,-952"/>
<text text-anchor="start" x="345" y="-959.1" font-family="Arial" font-size="8.00">NN</text>
<polygon fill="none" stroke="black" points="362,-952 362,-970 476,-970 476,-952 362,-952"/>
<text text-anchor="start" x="366" y="-958.8" font-family="Arial" font-size="9.00">version_number</text>
<polygon fill="none" stroke="black" points="476,-952 476,-970 542,-970 542,-952 476,-952"/>
<text text-anchor="start" x="480" y="-959.1" font-family="Arial" font-size="8.00">INTEGER</text>
<polygon fill="none" stroke="black" points="341,-934 341,-952 362,-952 362,-934 341,-934"/>
<text text-anchor="start" x="345" y="-941.1" font-family="Arial" font-size="8.00">NN</text>
<polygon fill="none" stroke="black" points="362,-934 362,-952 476,-952 476,-934 362,-934"/>
<text text-anchor="start" x="366" y="-940.8" font-family="Arial" font-size="9.00">source_object_id</text>
<polygon fill="none" stroke="black" points="476,-934 476,-952 542,-952 542,-934 476,-934"/>
<text text-anchor="start" x="480" y="-941.1" font-family="Arial" font-size="8.00">BIGINT</text>
<polygon fill="none" stroke="black" points="341,-916 341,-934 362,-934 362,-916 341,-916"/>
<text text-anchor="start" x="345" y="-923.1" font-family="Arial" font-size="8.00">NN</text>
<polygon fill="none" stroke="black" points="362,-916 362,-934 476,-934 476,-916 362,-916"/>
<text text-anchor="start" x="366" y="-922.8" font-family="Arial" font-size="9.00">source_type</text>
<polygon fill="none" stroke="black" points="476,-916 476,-934 542,-934 542,-916 476,-916"/>
<text text-anchor="start" x="480" y="-923.1" font-family="Arial" font-size="8.00">VARCHAR(20)</text>
<polygon fill="none" stroke="black" points="341,-898 341,-916 362,-916 362,-898 341,-898"/>
<text text-anchor="start" x="345" y="-905.1" font-family="Arial" font-size="8.00">NN</text>
<polygon fill="none" stroke="black" points="362,-898 362,-916 476,-916 476,-898 362,-898"/>
<text text-anchor="start" x="366" y="-904.8" font-family="Arial" font-size="9.00">size_bytes</text>
<polygon fill="none" stroke="black" points="476,-898 476,-916 542,-916 542,-898 476,-898"/>
<text text-anchor="start" x="480" y="-905.1" font-family="Arial" font-size="8.00">BIGINT</text>
<polygon fill="none" stroke="black" points="341,-880 341,-898 362,-898 362,-880 341,-880"/>
<text text-anchor="start" x="345" y="-887.1" font-family="Arial" font-size="8.00">NN</text>
<polygon fill="none" stroke="black" points="362,-880 362,-898 476,-898 476,-880 362,-880"/>
<text text-anchor="start" x="366" y="-886.8" font-family="Arial" font-size="9.00">sha256</text>
<polygon fill="none" stroke="black" points="476,-880 476,-898 542,-898 542,-880 476,-880"/>
<text text-anchor="start" x="480" y="-887.1" font-family="Arial" font-size="8.00">VARCHAR(64)</text>
<polygon fill="none" stroke="black" points="341,-862 341,-880 362,-880 362,-862 341,-862"/>
<polygon fill="none" stroke="black" points="362,-862 362,-880 476,-880 476,-862 362,-862"/>
<text text-anchor="start" x="366" y="-868.8" font-family="Arial" font-size="9.00">restored_from_version_id</text>
<polygon fill="none" stroke="black" points="476,-862 476,-880 542,-880 542,-862 476,-862"/>
<text text-anchor="start" x="480" y="-869.1" font-family="Arial" font-size="8.00">BIGINT</text>
<polygon fill="none" stroke="black" points="341,-844 341,-862 362,-862 362,-844 341,-844"/>
<text text-anchor="start" x="345" y="-851.1" font-family="Arial" font-size="8.00">NN</text>
<polygon fill="none" stroke="black" points="362,-844 362,-862 476,-862 476,-844 362,-844"/>
<text text-anchor="start" x="366" y="-850.8" font-family="Arial" font-size="9.00">created_by</text>
<polygon fill="none" stroke="black" points="476,-844 476,-862 542,-862 542,-844 476,-844"/>
<text text-anchor="start" x="480" y="-851.1" font-family="Arial" font-size="8.00">BIGINT</text>
<polygon fill="none" stroke="black" points="341,-826 341,-844 362,-844 362,-826 341,-826"/>
<text text-anchor="start" x="345" y="-833.1" font-family="Arial" font-size="8.00">NN</text>
<polygon fill="none" stroke="black" points="362,-826 362,-844 476,-844 476,-826 362,-826"/>
<text text-anchor="start" x="366" y="-832.8" font-family="Arial" font-size="9.00">created_at</text>
<polygon fill="none" stroke="black" points="476,-826 476,-844 542,-844 542,-826 476,-826"/>
<text text-anchor="start" x="480" y="-833.1" font-family="Arial" font-size="8.00">TIMESTAMPTZ</text>
</a>
</g>
</g>
<!-- n_personal_documents -->
<g id="node3" class="node">
<title>n_personal_documents</title>
<g id="a_node3"><a xlink:title="personal_documents">
<polygon fill="#eee5ff" stroke="transparent" points="709.5,-1096 709.5,-1119 882.5,-1119 882.5,-1096 709.5,-1096"/>
<polygon fill="none" stroke="black" points="709.5,-1096 709.5,-1119 882.5,-1119 882.5,-1096 709.5,-1096"/>
<text text-anchor="start" x="727.5" y="-1104.8" font-family="Arial" font-weight="bold" font-size="14.00">personal_documents</text>
<polygon fill="none" stroke="black" points="709.5,-1078 709.5,-1096 730.5,-1096 730.5,-1078 709.5,-1078"/>
<text text-anchor="start" x="713.5" y="-1085.1" font-family="Arial" font-size="8.00">PK</text>
<polygon fill="none" stroke="black" points="730.5,-1078 730.5,-1096 815.5,-1096 815.5,-1078 730.5,-1078"/>
<text text-anchor="start" x="734.5" y="-1084.8" font-family="Arial" font-size="9.00">id</text>
<polygon fill="none" stroke="black" points="815.5,-1078 815.5,-1096 882.5,-1096 882.5,-1078 815.5,-1078"/>
<text text-anchor="start" x="819.5" y="-1085.1" font-family="Arial" font-size="8.00">BIGINT</text>
<polygon fill="none" stroke="black" points="709.5,-1060 709.5,-1078 730.5,-1078 730.5,-1060 709.5,-1060"/>
<text text-anchor="start" x="713.5" y="-1067.1" font-family="Arial" font-size="8.00">NN</text>
<polygon fill="none" stroke="black" points="730.5,-1060 730.5,-1078 815.5,-1078 815.5,-1060 730.5,-1060"/>
<text text-anchor="start" x="734.5" y="-1066.8" font-family="Arial" font-size="9.00">owner_user_id</text>
<polygon fill="none" stroke="black" points="815.5,-1060 815.5,-1078 882.5,-1078 882.5,-1060 815.5,-1060"/>
<text text-anchor="start" x="819.5" y="-1067.1" font-family="Arial" font-size="8.00">BIGINT</text>
<polygon fill="none" stroke="black" points="709.5,-1042 709.5,-1060 730.5,-1060 730.5,-1042 709.5,-1042"/>
<text text-anchor="start" x="713.5" y="-1049.1" font-family="Arial" font-size="8.00">NN</text>
<polygon fill="none" stroke="black" points="730.5,-1042 730.5,-1060 815.5,-1060 815.5,-1042 730.5,-1042"/>
<text text-anchor="start" x="734.5" y="-1048.8" font-family="Arial" font-size="9.00">name</text>
<polygon fill="none" stroke="black" points="815.5,-1042 815.5,-1060 882.5,-1060 882.5,-1042 815.5,-1042"/>
<text text-anchor="start" x="819.5" y="-1049.1" font-family="Arial" font-size="8.00">VARCHAR(255)</text>
<polygon fill="none" stroke="black" points="709.5,-1024 709.5,-1042 730.5,-1042 730.5,-1024 709.5,-1024"/>
<text text-anchor="start" x="713.5" y="-1031.1" font-family="Arial" font-size="8.00">NN</text>
<polygon fill="none" stroke="black" points="730.5,-1024 730.5,-1042 815.5,-1042 815.5,-1024 730.5,-1024"/>
<text text-anchor="start" x="734.5" y="-1030.8" font-family="Arial" font-size="9.00">document_type</text>
<polygon fill="none" stroke="black" points="815.5,-1024 815.5,-1042 882.5,-1042 882.5,-1024 815.5,-1024"/>
<text text-anchor="start" x="819.5" y="-1031.1" font-family="Arial" font-size="8.00">VARCHAR(20)</text>
<polygon fill="none" stroke="black" points="709.5,-1006 709.5,-1024 730.5,-1024 730.5,-1006 709.5,-1006"/>
<text text-anchor="start" x="713.5" y="-1013.1" font-family="Arial" font-size="8.00">NN</text>
<polygon fill="none" stroke="black" points="730.5,-1006 730.5,-1024 815.5,-1024 815.5,-1006 730.5,-1006"/>
<text text-anchor="start" x="734.5" y="-1012.8" font-family="Arial" font-size="9.00">status</text>
<polygon fill="none" stroke="black" points="815.5,-1006 815.5,-1024 882.5,-1024 882.5,-1006 815.5,-1006"/>
<text text-anchor="start" x="819.5" y="-1013.1" font-family="Arial" font-size="8.00">VARCHAR(20)</text>
<polygon fill="none" stroke="black" points="709.5,-988 709.5,-1006 730.5,-1006 730.5,-988 709.5,-988"/>
<text text-anchor="start" x="713.5" y="-995.1" font-family="Arial" font-size="8.00">FK</text>
<polygon fill="none" stroke="black" points="730.5,-988 730.5,-1006 815.5,-1006 815.5,-988 730.5,-988"/>
<text text-anchor="start" x="734.5" y="-994.8" font-family="Arial" font-size="9.00">current_version_id</text>
<polygon fill="none" stroke="black" points="815.5,-988 815.5,-1006 882.5,-1006 882.5,-988 815.5,-988"/>
<text text-anchor="start" x="819.5" y="-995.1" font-family="Arial" font-size="8.00">BIGINT</text>
<polygon fill="none" stroke="black" points="709.5,-970 709.5,-988 730.5,-988 730.5,-970 709.5,-970"/>
<text text-anchor="start" x="713.5" y="-977.1" font-family="Arial" font-size="8.00">NN</text>
<polygon fill="none" stroke="black" points="730.5,-970 730.5,-988 815.5,-988 815.5,-970 730.5,-970"/>
<text text-anchor="start" x="734.5" y="-976.8" font-family="Arial" font-size="9.00">version</text>
<polygon fill="none" stroke="black" points="815.5,-970 815.5,-988 882.5,-988 882.5,-970 815.5,-970"/>
<text text-anchor="start" x="819.5" y="-977.1" font-family="Arial" font-size="8.00">BIGINT</text>
<polygon fill="none" stroke="black" points="709.5,-952 709.5,-970 730.5,-970 730.5,-952 709.5,-952"/>
<text text-anchor="start" x="713.5" y="-959.1" font-family="Arial" font-size="8.00">NN</text>
<polygon fill="none" stroke="black" points="730.5,-952 730.5,-970 815.5,-970 815.5,-952 730.5,-952"/>
<text text-anchor="start" x="734.5" y="-958.8" font-family="Arial" font-size="9.00">created_at</text>
<polygon fill="none" stroke="black" points="815.5,-952 815.5,-970 882.5,-970 882.5,-952 815.5,-952"/>
<text text-anchor="start" x="819.5" y="-959.1" font-family="Arial" font-size="8.00">TIMESTAMPTZ</text>
<polygon fill="none" stroke="black" points="709.5,-934 709.5,-952 730.5,-952 730.5,-934 709.5,-934"/>
<text text-anchor="start" x="713.5" y="-941.1" font-family="Arial" font-size="8.00">NN</text>
<polygon fill="none" stroke="black" points="730.5,-934 730.5,-952 815.5,-952 815.5,-934 730.5,-934"/>
<text text-anchor="start" x="734.5" y="-940.8" font-family="Arial" font-size="9.00">updated_at</text>
<polygon fill="none" stroke="black" points="815.5,-934 815.5,-952 882.5,-952 882.5,-934 815.5,-934"/>
<text text-anchor="start" x="819.5" y="-941.1" font-family="Arial" font-size="8.00">TIMESTAMPTZ</text>
<polygon fill="none" stroke="black" points="709.5,-916 709.5,-934 730.5,-934 730.5,-916 709.5,-916"/>
<polygon fill="none" stroke="black" points="730.5,-916 730.5,-934 815.5,-934 815.5,-916 730.5,-916"/>
<text text-anchor="start" x="734.5" y="-922.8" font-family="Arial" font-size="9.00">deleted_at</text>
<polygon fill="none" stroke="black" points="815.5,-916 815.5,-934 882.5,-934 882.5,-916 815.5,-916"/>
<text text-anchor="start" x="819.5" y="-923.1" font-family="Arial" font-size="8.00">TIMESTAMPTZ</text>
</a>
</g>
</g>
<!-- n_personal_document_versions&#45;&gt;n_personal_documents -->
<g id="edge1" class="edge">
<title>n_personal_document_versions:e&#45;&gt;n_personal_documents:w</title>
<g id="a_edge1"><a xlink:title="fk_personal_documents_current_version: personal_documents(current_version_id) → personal_document_versions(id)">
<path fill="none" stroke="#667085" d="M480.57,-997C507.9,-997 684,-997 722.2,-997"/>
<polygon fill="#667085" stroke="#667085" points="477.7,-1000.5 477.7,-993.5 479.1,-993.5 479.1,-1000.5 477.7,-1000.5"/>
<polyline fill="none" stroke="#667085" points="477,-997 480.5,-997 "/>
<polygon fill="#667085" stroke="#667085" points="722.5,-997 729.5,-1000.15 726,-997 729.5,-997 729.5,-997 729.5,-997 726,-997 729.5,-993.85 722.5,-997 722.5,-997"/>
</a>
</g>
<text text-anchor="middle" x="626" y="-999.6" font-family="Arial" font-size="8.00">1 : 0..N · DEL RESTRICT</text>
</g>
<!-- n_user_space_contents -->
<g id="node4" class="node">
<title>n_user_space_contents</title>
<g id="a_node4"><a xlink:title="user_space_contents">
<polygon fill="#eee5ff" stroke="transparent" points="348,-778 348,-801 535,-801 535,-778 348,-778"/>
<polygon fill="none" stroke="black" points="348,-778 348,-801 535,-801 535,-778 348,-778"/>
<text text-anchor="start" x="372" y="-786.8" font-family="Arial" font-weight="bold" font-size="14.00">user_space_contents</text>
<polygon fill="none" stroke="black" points="348,-760 348,-778 381,-778 381,-760 348,-760"/>
<text text-anchor="start" x="352" y="-767.1" font-family="Arial" font-size="8.00">PK</text>
<polygon fill="none" stroke="black" points="381,-760 381,-778 468,-778 468,-760 381,-760"/>
<text text-anchor="start" x="385" y="-766.8" font-family="Arial" font-size="9.00">id</text>
<polygon fill="none" stroke="black" points="468,-760 468,-778 535,-778 535,-760 468,-760"/>
<text text-anchor="start" x="472" y="-767.1" font-family="Arial" font-size="8.00">BIGINT</text>
<polygon fill="none" stroke="black" points="348,-742 348,-760 381,-760 381,-742 348,-742"/>
<text text-anchor="start" x="352" y="-749.1" font-family="Arial" font-size="8.00">FK NN</text>
<polygon fill="none" stroke="black" points="381,-742 381,-760 468,-760 468,-742 381,-742"/>
<text text-anchor="start" x="385" y="-748.8" font-family="Arial" font-size="9.00">user_id</text>
<polygon fill="none" stroke="black" points="468,-742 468,-760 535,-760 535,-742 468,-742"/>
<text text-anchor="start" x="472" y="-749.1" font-family="Arial" font-size="8.00">BIGINT</text>
<polygon fill="none" stroke="black" points="348,-724 348,-742 381,-742 381,-724 348,-724"/>
<text text-anchor="start" x="352" y="-731.1" font-family="Arial" font-size="8.00">NN</text>
<polygon fill="none" stroke="black" points="381,-724 381,-742 468,-742 468,-724 381,-724"/>
<text text-anchor="start" x="385" y="-730.8" font-family="Arial" font-size="9.00">thread_id</text>
<polygon fill="none" stroke="black" points="468,-724 468,-742 535,-742 535,-724 468,-724"/>
<text text-anchor="start" x="472" y="-731.1" font-family="Arial" font-size="8.00">BIGINT</text>
<polygon fill="none" stroke="black" points="348,-706 348,-724 381,-724 381,-706 348,-706"/>
<text text-anchor="start" x="352" y="-713.1" font-family="Arial" font-size="8.00">NN</text>
<polygon fill="none" stroke="black" points="381,-706 381,-724 468,-724 468,-706 381,-706"/>
<text text-anchor="start" x="385" y="-712.8" font-family="Arial" font-size="9.00">title</text>
<polygon fill="none" stroke="black" points="468,-706 468,-724 535,-724 535,-706 468,-706"/>
<text text-anchor="start" x="472" y="-713.1" font-family="Arial" font-size="8.00">VARCHAR(255)</text>
<polygon fill="none" stroke="black" points="348,-688 348,-706 381,-706 381,-688 348,-688"/>
<text text-anchor="start" x="352" y="-695.1" font-family="Arial" font-size="8.00">NN</text>
<polygon fill="none" stroke="black" points="381,-688 381,-706 468,-706 468,-688 381,-688"/>
<text text-anchor="start" x="385" y="-694.8" font-family="Arial" font-size="9.00">excerpt</text>
<polygon fill="none" stroke="black" points="468,-688 468,-706 535,-706 535,-688 468,-688"/>
<text text-anchor="start" x="472" y="-695.1" font-family="Arial" font-size="8.00">TEXT</text>
<polygon fill="none" stroke="black" points="348,-670 348,-688 381,-688 381,-670 348,-670"/>
<text text-anchor="start" x="352" y="-677.1" font-family="Arial" font-size="8.00">NN</text>
<polygon fill="none" stroke="black" points="381,-670 381,-688 468,-688 468,-670 381,-670"/>
<text text-anchor="start" x="385" y="-676.8" font-family="Arial" font-size="9.00">author_name</text>
<polygon fill="none" stroke="black" points="468,-670 468,-688 535,-688 535,-670 468,-670"/>
<text text-anchor="start" x="472" y="-677.1" font-family="Arial" font-size="8.00">VARCHAR(64)</text>
<polygon fill="none" stroke="black" points="348,-652 348,-670 381,-670 381,-652 348,-652"/>
<text text-anchor="start" x="352" y="-659.1" font-family="Arial" font-size="8.00">NN</text>
<polygon fill="none" stroke="black" points="381,-652 381,-670 468,-670 468,-652 381,-652"/>
<text text-anchor="start" x="385" y="-658.8" font-family="Arial" font-size="9.00">category_id</text>
<polygon fill="none" stroke="black" points="468,-652 468,-670 535,-670 535,-652 468,-652"/>
<text text-anchor="start" x="472" y="-659.1" font-family="Arial" font-size="8.00">BIGINT</text>
<polygon fill="none" stroke="black" points="348,-634 348,-652 381,-652 381,-634 348,-634"/>
<text text-anchor="start" x="352" y="-641.1" font-family="Arial" font-size="8.00">NN</text>
<polygon fill="none" stroke="black" points="381,-634 381,-652 468,-652 468,-634 381,-634"/>
<text text-anchor="start" x="385" y="-640.8" font-family="Arial" font-size="9.00">tags</text>
<polygon fill="none" stroke="black" points="468,-634 468,-652 535,-652 535,-634 468,-634"/>
<text text-anchor="start" x="472" y="-641.1" font-family="Arial" font-size="8.00">TEXT[]</text>
<polygon fill="none" stroke="black" points="348,-616 348,-634 381,-634 381,-616 348,-616"/>
<text text-anchor="start" x="352" y="-623.1" font-family="Arial" font-size="8.00">NN</text>
<polygon fill="none" stroke="black" points="381,-616 381,-634 468,-634 468,-616 381,-616"/>
<text text-anchor="start" x="385" y="-622.8" font-family="Arial" font-size="9.00">status</text>
<polygon fill="none" stroke="black" points="468,-616 468,-634 535,-634 535,-616 468,-616"/>
<text text-anchor="start" x="472" y="-623.1" font-family="Arial" font-size="8.00">VARCHAR(20)</text>
<polygon fill="none" stroke="black" points="348,-598 348,-616 381,-616 381,-598 348,-598"/>
<text text-anchor="start" x="352" y="-605.1" font-family="Arial" font-size="8.00">NN</text>
<polygon fill="none" stroke="black" points="381,-598 381,-616 468,-616 468,-598 381,-598"/>
<text text-anchor="start" x="385" y="-604.8" font-family="Arial" font-size="9.00">thread_created_at</text>
<polygon fill="none" stroke="black" points="468,-598 468,-616 535,-616 535,-598 468,-598"/>
<text text-anchor="start" x="472" y="-605.1" font-family="Arial" font-size="8.00">TIMESTAMP</text>
<polygon fill="none" stroke="black" points="348,-580 348,-598 381,-598 381,-580 348,-580"/>
<text text-anchor="start" x="352" y="-587.1" font-family="Arial" font-size="8.00">NN</text>
<polygon fill="none" stroke="black" points="381,-580 381,-598 468,-598 468,-580 381,-580"/>
<text text-anchor="start" x="385" y="-586.8" font-family="Arial" font-size="9.00">thread_updated_at</text>
<polygon fill="none" stroke="black" points="468,-580 468,-598 535,-598 535,-580 468,-580"/>
<text text-anchor="start" x="472" y="-587.1" font-family="Arial" font-size="8.00">TIMESTAMP</text>
<polygon fill="none" stroke="black" points="348,-562 348,-580 381,-580 381,-562 348,-562"/>
<text text-anchor="start" x="352" y="-569.1" font-family="Arial" font-size="8.00">NN</text>
<polygon fill="none" stroke="black" points="381,-562 381,-580 468,-580 468,-562 381,-562"/>
<text text-anchor="start" x="385" y="-568.8" font-family="Arial" font-size="9.00">synced_at</text>
<polygon fill="none" stroke="black" points="468,-562 468,-580 535,-580 535,-562 468,-562"/>
<text text-anchor="start" x="472" y="-569.1" font-family="Arial" font-size="8.00">TIMESTAMP</text>
<polygon fill="none" stroke="black" points="348,-544 348,-562 381,-562 381,-544 348,-544"/>
<polygon fill="none" stroke="black" points="381,-544 381,-562 468,-562 468,-544 381,-544"/>
<text text-anchor="start" x="385" y="-550.8" font-family="Arial" font-size="9.00">deleted_at</text>
<polygon fill="none" stroke="black" points="468,-544 468,-562 535,-562 535,-544 468,-544"/>
<text text-anchor="start" x="472" y="-551.1" font-family="Arial" font-size="8.00">TIMESTAMP</text>
</a>
</g>
</g>
<!-- n_user_space_style_snapshots -->
<g id="node5" class="node">
<title>n_user_space_style_snapshots</title>
<g id="a_node5"><a xlink:title="user_space_style_snapshots">
<polygon fill="#eee5ff" stroke="transparent" points="343,-496 343,-519 539,-519 539,-496 343,-496"/>
<polygon fill="none" stroke="black" points="343,-496 343,-519 539,-519 539,-496 343,-496"/>
<text text-anchor="start" x="347" y="-504.8" font-family="Arial" font-weight="bold" font-size="14.00">user_space_style_snapshots</text>
<polygon fill="none" stroke="black" points="343,-478 343,-496 385,-496 385,-478 343,-478"/>
<text text-anchor="start" x="347" y="-485.1" font-family="Arial" font-size="8.00">PK</text>
<polygon fill="none" stroke="black" points="385,-478 385,-496 465,-496 465,-478 385,-478"/>
<text text-anchor="start" x="389" y="-484.8" font-family="Arial" font-size="9.00">id</text>
<polygon fill="none" stroke="black" points="465,-478 465,-496 539,-496 539,-478 465,-478"/>
<text text-anchor="start" x="469" y="-485.1" font-family="Arial" font-size="8.00">BIGINT</text>
<polygon fill="none" stroke="black" points="343,-460 343,-478 385,-478 385,-460 343,-460"/>
<text text-anchor="start" x="347" y="-467.1" font-family="Arial" font-size="8.00">NN</text>
<polygon fill="none" stroke="black" points="385,-460 385,-478 465,-478 465,-460 385,-460"/>
<text text-anchor="start" x="389" y="-466.8" font-family="Arial" font-size="9.00">user_id</text>
<polygon fill="none" stroke="black" points="465,-460 465,-478 539,-478 539,-460 465,-460"/>
<text text-anchor="start" x="469" y="-467.1" font-family="Arial" font-size="8.00">VARCHAR(64)</text>
<polygon fill="none" stroke="black" points="343,-442 343,-460 385,-460 385,-442 343,-442"/>
<text text-anchor="start" x="347" y="-449.1" font-family="Arial" font-size="8.00">NN</text>
<polygon fill="none" stroke="black" points="385,-442 385,-460 465,-460 465,-442 385,-442"/>
<text text-anchor="start" x="389" y="-448.8" font-family="Arial" font-size="9.00">snapshot_type</text>
<polygon fill="none" stroke="black" points="465,-442 465,-460 539,-460 539,-442 465,-442"/>
<text text-anchor="start" x="469" y="-449.1" font-family="Arial" font-size="8.00">VARCHAR(32)</text>
<polygon fill="none" stroke="black" points="343,-424 343,-442 385,-442 385,-424 343,-424"/>
<text text-anchor="start" x="347" y="-431.1" font-family="Arial" font-size="8.00">NN</text>
<polygon fill="none" stroke="black" points="385,-424 385,-442 465,-442 465,-424 385,-424"/>
<text text-anchor="start" x="389" y="-430.8" font-family="Arial" font-size="9.00">style_name</text>
<polygon fill="none" stroke="black" points="465,-424 465,-442 539,-442 539,-424 465,-424"/>
<text text-anchor="start" x="469" y="-431.1" font-family="Arial" font-size="8.00">VARCHAR(64)</text>
<polygon fill="none" stroke="black" points="343,-406 343,-424 385,-424 385,-406 343,-406"/>
<text text-anchor="start" x="347" y="-413.1" font-family="Arial" font-size="8.00">NN</text>
<polygon fill="none" stroke="black" points="385,-406 385,-424 465,-424 465,-406 385,-406"/>
<text text-anchor="start" x="389" y="-412.8" font-family="Arial" font-size="9.00">style_version</text>
<polygon fill="none" stroke="black" points="465,-406 465,-424 539,-424 539,-406 465,-406"/>
<text text-anchor="start" x="469" y="-413.1" font-family="Arial" font-size="8.00">VARCHAR(32)</text>
<polygon fill="none" stroke="black" points="343,-388 343,-406 385,-406 385,-388 343,-388"/>
<text text-anchor="start" x="347" y="-395.1" font-family="Arial" font-size="8.00">NN</text>
<polygon fill="none" stroke="black" points="385,-388 385,-406 465,-406 465,-388 385,-388"/>
<text text-anchor="start" x="389" y="-394.8" font-family="Arial" font-size="9.00">theme</text>
<polygon fill="none" stroke="black" points="465,-388 465,-406 539,-406 539,-388 465,-388"/>
<text text-anchor="start" x="469" y="-395.1" font-family="Arial" font-size="8.00">VARCHAR(64)</text>
<polygon fill="none" stroke="black" points="343,-370 343,-388 385,-388 385,-370 343,-370"/>
<text text-anchor="start" x="347" y="-377.1" font-family="Arial" font-size="8.00">NN</text>
<polygon fill="none" stroke="black" points="385,-370 385,-388 465,-388 465,-370 385,-370"/>
<text text-anchor="start" x="389" y="-376.8" font-family="Arial" font-size="9.00">layout</text>
<polygon fill="none" stroke="black" points="465,-370 465,-388 539,-388 539,-370 465,-370"/>
<text text-anchor="start" x="469" y="-377.1" font-family="Arial" font-size="8.00">VARCHAR(64)</text>
<polygon fill="none" stroke="black" points="343,-352 343,-370 385,-370 385,-352 343,-352"/>
<text text-anchor="start" x="347" y="-359.1" font-family="Arial" font-size="8.00">NN</text>
<polygon fill="none" stroke="black" points="385,-352 385,-370 465,-370 465,-352 385,-352"/>
<text text-anchor="start" x="389" y="-358.8" font-family="Arial" font-size="9.00">style_manifest</text>
<polygon fill="none" stroke="black" points="465,-352 465,-370 539,-370 539,-352 465,-352"/>
<text text-anchor="start" x="469" y="-359.1" font-family="Arial" font-size="8.00">JSONB</text>
<polygon fill="none" stroke="black" points="343,-334 343,-352 385,-352 385,-334 343,-334"/>
<text text-anchor="start" x="347" y="-341.1" font-family="Arial" font-size="8.00">NN</text>
<polygon fill="none" stroke="black" points="385,-334 385,-352 465,-352 465,-334 385,-334"/>
<text text-anchor="start" x="389" y="-340.8" font-family="Arial" font-size="9.00">created_at</text>
<polygon fill="none" stroke="black" points="465,-334 465,-352 539,-352 539,-334 465,-334"/>
<text text-anchor="start" x="469" y="-341.1" font-family="Arial" font-size="8.00">TIMESTAMP</text>
</a>
</g>
</g>
<!-- n_user_spaces -->
<g id="node6" class="node">
<title>n_user_spaces</title>
<g id="a_node6"><a xlink:title="user_spaces">
<polygon fill="#eee5ff" stroke="transparent" points="354,-286 354,-309 529,-309 529,-286 354,-286"/>
<polygon fill="none" stroke="black" points="354,-286 354,-309 529,-309 529,-286 354,-286"/>
<text text-anchor="start" x="400.5" y="-294.8" font-family="Arial" font-weight="bold" font-size="14.00">user_spaces</text>
<polygon fill="none" stroke="black" points="354,-268 354,-286 387,-286 387,-268 354,-268"/>
<text text-anchor="start" x="358" y="-275.1" font-family="Arial" font-size="8.00">PK</text>
<polygon fill="none" stroke="black" points="387,-268 387,-286 462,-286 462,-268 387,-268"/>
<text text-anchor="start" x="391" y="-274.8" font-family="Arial" font-size="9.00">id</text>
<polygon fill="none" stroke="black" points="462,-268 462,-286 529,-286 529,-268 462,-268"/>
<text text-anchor="start" x="466" y="-275.1" font-family="Arial" font-size="8.00">BIGINT</text>
<polygon fill="none" stroke="black" points="354,-250 354,-268 387,-268 387,-250 354,-250"/>
<text text-anchor="start" x="358" y="-257.1" font-family="Arial" font-size="8.00">FK NN</text>
<polygon fill="none" stroke="black" points="387,-250 387,-268 462,-268 462,-250 387,-250"/>
<text text-anchor="start" x="391" y="-256.8" font-family="Arial" font-size="9.00">user_id</text>
<polygon fill="none" stroke="black" points="462,-250 462,-268 529,-268 529,-250 462,-250"/>
<text text-anchor="start" x="466" y="-257.1" font-family="Arial" font-size="8.00">BIGINT</text>
<polygon fill="none" stroke="black" points="354,-232 354,-250 387,-250 387,-232 354,-232"/>
<text text-anchor="start" x="358" y="-239.1" font-family="Arial" font-size="8.00">NN</text>
<polygon fill="none" stroke="black" points="387,-232 387,-250 462,-250 462,-232 387,-232"/>
<text text-anchor="start" x="391" y="-238.8" font-family="Arial" font-size="9.00">title</text>
<polygon fill="none" stroke="black" points="462,-232 462,-250 529,-250 529,-232 462,-232"/>
<text text-anchor="start" x="466" y="-239.1" font-family="Arial" font-size="8.00">VARCHAR(120)</text>
<polygon fill="none" stroke="black" points="354,-214 354,-232 387,-232 387,-214 354,-214"/>
<text text-anchor="start" x="358" y="-221.1" font-family="Arial" font-size="8.00">NN</text>
<polygon fill="none" stroke="black" points="387,-214 387,-232 462,-232 462,-214 387,-214"/>
<text text-anchor="start" x="391" y="-220.8" font-family="Arial" font-size="9.00">bio</text>
<polygon fill="none" stroke="black" points="462,-214 462,-232 529,-232 529,-214 462,-214"/>
<text text-anchor="start" x="466" y="-221.1" font-family="Arial" font-size="8.00">VARCHAR(500)</text>
<polygon fill="none" stroke="black" points="354,-196 354,-214 387,-214 387,-196 354,-196"/>
<text text-anchor="start" x="358" y="-203.1" font-family="Arial" font-size="8.00">NN</text>
<polygon fill="none" stroke="black" points="387,-196 387,-214 462,-214 462,-196 387,-196"/>
<text text-anchor="start" x="391" y="-202.8" font-family="Arial" font-size="9.00">avatar</text>
<polygon fill="none" stroke="black" points="462,-196 462,-214 529,-214 529,-196 462,-196"/>
<text text-anchor="start" x="466" y="-203.1" font-family="Arial" font-size="8.00">VARCHAR(512)</text>
<polygon fill="none" stroke="black" points="354,-178 354,-196 387,-196 387,-178 354,-178"/>
<text text-anchor="start" x="358" y="-185.1" font-family="Arial" font-size="8.00">NN</text>
<polygon fill="none" stroke="black" points="387,-178 387,-196 462,-196 462,-178 387,-178"/>
<text text-anchor="start" x="391" y="-184.8" font-family="Arial" font-size="9.00">cover_image</text>
<polygon fill="none" stroke="black" points="462,-178 462,-196 529,-196 529,-178 462,-178"/>
<text text-anchor="start" x="466" y="-185.1" font-family="Arial" font-size="8.00">VARCHAR(512)</text>
<polygon fill="none" stroke="black" points="354,-160 354,-178 387,-178 387,-160 354,-160"/>
<text text-anchor="start" x="358" y="-167.1" font-family="Arial" font-size="8.00">NN</text>
<polygon fill="none" stroke="black" points="387,-160 387,-178 462,-178 462,-160 387,-160"/>
<text text-anchor="start" x="391" y="-166.8" font-family="Arial" font-size="9.00">theme</text>
<polygon fill="none" stroke="black" points="462,-160 462,-178 529,-178 529,-160 462,-160"/>
<text text-anchor="start" x="466" y="-167.1" font-family="Arial" font-size="8.00">VARCHAR(64)</text>
<polygon fill="none" stroke="black" points="354,-142 354,-160 387,-160 387,-142 354,-142"/>
<text text-anchor="start" x="358" y="-149.1" font-family="Arial" font-size="8.00">NN</text>
<polygon fill="none" stroke="black" points="387,-142 387,-160 462,-160 462,-142 387,-142"/>
<text text-anchor="start" x="391" y="-148.8" font-family="Arial" font-size="9.00">layout</text>
<polygon fill="none" stroke="black" points="462,-142 462,-160 529,-160 529,-142 462,-142"/>
<text text-anchor="start" x="466" y="-149.1" font-family="Arial" font-size="8.00">VARCHAR(64)</text>
<polygon fill="none" stroke="black" points="354,-124 354,-142 387,-142 387,-124 354,-124"/>
<text text-anchor="start" x="358" y="-131.1" font-family="Arial" font-size="8.00">NN</text>
<polygon fill="none" stroke="black" points="387,-124 387,-142 462,-142 462,-124 387,-124"/>
<text text-anchor="start" x="391" y="-130.8" font-family="Arial" font-size="9.00">visibility</text>
<polygon fill="none" stroke="black" points="462,-124 462,-142 529,-142 529,-124 462,-124"/>
<text text-anchor="start" x="466" y="-131.1" font-family="Arial" font-size="8.00">VARCHAR(20)</text>
<polygon fill="none" stroke="black" points="354,-106 354,-124 387,-124 387,-106 354,-106"/>
<text text-anchor="start" x="358" y="-113.1" font-family="Arial" font-size="8.00">NN</text>
<polygon fill="none" stroke="black" points="387,-106 387,-124 462,-124 462,-106 387,-106"/>
<text text-anchor="start" x="391" y="-112.8" font-family="Arial" font-size="9.00">sync_enabled</text>
<polygon fill="none" stroke="black" points="462,-106 462,-124 529,-124 529,-106 462,-106"/>
<text text-anchor="start" x="466" y="-113.1" font-family="Arial" font-size="8.00">BOOLEAN</text>
<polygon fill="none" stroke="black" points="354,-88 354,-106 387,-106 387,-88 354,-88"/>
<text text-anchor="start" x="358" y="-95.1" font-family="Arial" font-size="8.00">NN</text>
<polygon fill="none" stroke="black" points="387,-88 387,-106 462,-106 462,-88 387,-88"/>
<text text-anchor="start" x="391" y="-94.8" font-family="Arial" font-size="9.00">sync_categories</text>
<polygon fill="none" stroke="black" points="462,-88 462,-106 529,-106 529,-88 462,-88"/>
<text text-anchor="start" x="466" y="-95.1" font-family="Arial" font-size="8.00">TEXT[]</text>
<polygon fill="none" stroke="black" points="354,-70 354,-88 387,-88 387,-70 354,-70"/>
<text text-anchor="start" x="358" y="-77.1" font-family="Arial" font-size="8.00">NN</text>
<polygon fill="none" stroke="black" points="387,-70 387,-88 462,-88 462,-70 387,-70"/>
<text text-anchor="start" x="391" y="-76.8" font-family="Arial" font-size="9.00">sync_tags</text>
<polygon fill="none" stroke="black" points="462,-70 462,-88 529,-88 529,-70 462,-70"/>
<text text-anchor="start" x="466" y="-77.1" font-family="Arial" font-size="8.00">TEXT[]</text>
<polygon fill="none" stroke="black" points="354,-52 354,-70 387,-70 387,-52 354,-52"/>
<text text-anchor="start" x="358" y="-59.1" font-family="Arial" font-size="8.00">NN</text>
<polygon fill="none" stroke="black" points="387,-52 387,-70 462,-70 462,-52 387,-52"/>
<text text-anchor="start" x="391" y="-58.8" font-family="Arial" font-size="9.00">created_at</text>
<polygon fill="none" stroke="black" points="462,-52 462,-70 529,-70 529,-52 462,-52"/>
<text text-anchor="start" x="466" y="-59.1" font-family="Arial" font-size="8.00">TIMESTAMP</text>
<polygon fill="none" stroke="black" points="354,-34 354,-52 387,-52 387,-34 354,-34"/>
<text text-anchor="start" x="358" y="-41.1" font-family="Arial" font-size="8.00">NN</text>
<polygon fill="none" stroke="black" points="387,-34 387,-52 462,-52 462,-34 387,-34"/>
<text text-anchor="start" x="391" y="-40.8" font-family="Arial" font-size="9.00">updated_at</text>
<polygon fill="none" stroke="black" points="462,-34 462,-52 529,-52 529,-34 462,-34"/>
<text text-anchor="start" x="466" y="-41.1" font-family="Arial" font-size="8.00">TIMESTAMP</text>
<polygon fill="none" stroke="black" points="354,-16 354,-34 387,-34 387,-16 354,-16"/>
<polygon fill="none" stroke="black" points="387,-16 387,-34 462,-34 462,-16 387,-16"/>
<text text-anchor="start" x="391" y="-22.8" font-family="Arial" font-size="9.00">deleted_at</text>
<polygon fill="none" stroke="black" points="462,-16 462,-34 529,-34 529,-16 462,-16"/>
<text text-anchor="start" x="466" y="-23.1" font-family="Arial" font-size="8.00">TIMESTAMP</text>
</a>
</g>
</g>
<!-- n_users -->
<g id="node7" class="node">
<title>n_users</title>
<g id="a_node7"><a xlink:title="users">
<polygon fill="#f7f7f7" stroke="transparent" points="72.5,-549 72.5,-572 117.5,-572 117.5,-549 72.5,-549"/>
<polygon fill="none" stroke="black" points="72.5,-549 72.5,-572 117.5,-572 117.5,-549 72.5,-549"/>
<text text-anchor="start" x="76.5" y="-557.8" font-family="Arial" font-weight="bold" font-size="14.00">users</text>
</a>
</g>
</g>
<!-- n_users&#45;&gt;n_user_space_contents -->
<g id="edge2" class="edge">
<title>n_users:e&#45;&gt;n_user_space_contents:w</title>
<g id="a_edge2"><a xlink:title="fk_user_space_contents_user: user_space_contents(user_id) → users(id)">
<path fill="none" stroke="#667085" d="M115.87,-574.6C174.14,-613.52 339.51,-723.96 373.75,-746.83"/>
<polygon fill="#667085" stroke="#667085" points="111.51,-575.9 115.39,-570.08 116.56,-570.86 112.67,-576.68 111.51,-575.9"/>
<polyline fill="none" stroke="#667085" points="112.87,-572.6 115.78,-574.54 "/>
<polygon fill="#667085" stroke="#667085" points="374.18,-747.11 378.25,-753.62 377.09,-749.06 380,-751 380,-751 380,-751 377.09,-749.06 381.75,-748.38 374.18,-747.11 374.18,-747.11"/>
</a>
</g>
<text text-anchor="middle" x="260.5" y="-696.6" font-family="Arial" font-size="8.00">1 : N · DEL RESTRICT</text>
</g>
<!-- n_users&#45;&gt;n_user_spaces -->
<g id="edge3" class="edge">
<title>n_users:e&#45;&gt;n_user_spaces:w</title>
<g id="a_edge3"><a xlink:title="fk_user_spaces_user: user_spaces(user_id) → users(id)">
<path fill="none" stroke="#667085" d="M109.53,-546.41C162.37,-491.48 348.05,-298.45 380.99,-264.21"/>
<polygon fill="#667085" stroke="#667085" points="109.9,-551.08 104.85,-546.23 105.82,-545.22 110.87,-550.07 109.9,-551.08"/>
<polyline fill="none" stroke="#667085" points="106.89,-549.16 109.31,-546.64 "/>
<polygon fill="#667085" stroke="#667085" points="381.15,-264.04 388.27,-261.18 383.57,-261.52 386,-259 386,-259 386,-259 383.57,-261.52 383.73,-256.82 381.15,-264.04 381.15,-264.04"/>
</a>
</g>
<text text-anchor="middle" x="260.5" y="-430.6" font-family="Arial" font-size="8.00">1 : N · DEL RESTRICT</text>
</g>
</g>
</svg>
